<?xml version="1.0" ?><svg width="128px" height="128px" viewBox="0 0 128 128" data-name="Слой 1" id="Слой_1" xmlns="http://www.w3.org/2000/svg"><defs><style>.cls-1{fill:#fff;}.cls-2{fill:#404040;}.cls-3{fill:#ff8b63;}.cls-4{fill:#ffe17d;}</style></defs><title/><rect class="cls-1" height="92" rx="4.04" ry="4.04" width="124" x="2" y="10"/><path class="cls-2" d="M122,104H6a6.05,6.05,0,0,1-6-6V14A6.05,6.05,0,0,1,6,8H122a6.05,6.05,0,0,1,6,6V98A6.05,6.05,0,0,1,122,104ZM6,12a2,2,0,0,0-2,2V98a2,2,0,0,0,2,2H122a2,2,0,0,0,2-2V14a2,2,0,0,0-2-2Z"/><path class="cls-2" d="M97,120H31a2,2,0,0,1,0-4H97a2,2,0,0,1,0,4Z"/><path class="cls-2" d="M64,120a2,2,0,0,1-2-2V102a2,2,0,0,1,4,0v16A2,2,0,0,1,64,120Z"/><polyline class="cls-3" points="105.96 58.61 110.37 72.13 103.47 69.97 99.18 75.78 95.06 63.12"/><path class="cls-2" d="M99.18,77.78l-.32,0a2,2,0,0,1-1.58-1.36L93.15,63.74A2,2,0,0,1,97,62.5l2.92,9,2-2.69a2,2,0,0,1,2.21-.72l3.19,1-3.21-9.84a2,2,0,0,1,3.8-1.24l4.41,13.53a2,2,0,0,1-2.5,2.53l-5.54-1.73L100.79,77A2,2,0,0,1,99.18,77.78Z"/><polyline class="cls-3" points="80.07 58 75.73 72.13 82.63 69.97 86.92 75.78 90.84 62.96"/><path class="cls-2" d="M86.92,77.78A2,2,0,0,1,85.31,77l-3.45-4.66L76.33,74a2,2,0,0,1-2.51-2.5l4.34-14.13A2,2,0,1,1,82,58.59l-3.22,10.5,3.27-1a2,2,0,0,1,2.21.72l1.94,2.62,2.76-9a2,2,0,0,1,3.83,1.17L88.83,76.37a2,2,0,0,1-1.57,1.39Z"/><path class="cls-4" d="M94.75,23.56l1.57-.89a3.46,3.46,0,0,1,4.76,1.4l.84,1.6a3.46,3.46,0,0,0,2.86,1.84l1.81.1a3.46,3.46,0,0,1,3.25,3.75l-.16,1.8a3.46,3.46,0,0,0,1.41,3.1l1.47,1.06a3.46,3.46,0,0,1,.71,4.91l-1.11,1.43a3.46,3.46,0,0,0-.48,3.37l.66,1.69a3.46,3.46,0,0,1-2.06,4.51l-1.71.61a3.46,3.46,0,0,0-2.23,2.57L106,58.18a3.46,3.46,0,0,1-4.17,2.68l-1.76-.41a3.46,3.46,0,0,0-3.27,1l-1.26,1.3a3.46,3.46,0,0,1-5,0l-1.26-1.3a3.46,3.46,0,0,0-3.27-1l-1.76.41a3.46,3.46,0,0,1-4.17-2.68l-.36-1.77a3.46,3.46,0,0,0-2.23-2.57l-1.71-.61a3.46,3.46,0,0,1-2.06-4.51L74.41,47a3.46,3.46,0,0,0-.48-3.37l-1.11-1.43a3.46,3.46,0,0,1,.71-4.91L75,36.26a3.46,3.46,0,0,0,1.41-3.1l-.16-1.8a3.46,3.46,0,0,1,3.25-3.75l1.81-.1a3.46,3.46,0,0,0,2.86-1.84l.84-1.6a3.46,3.46,0,0,1,4.76-1.4l1.57.89A3.46,3.46,0,0,0,94.75,23.56Z"/><path class="cls-2" d="M93.05,65.76a5.41,5.41,0,0,1-3.92-1.66l-1.26-1.3a1.46,1.46,0,0,0-1.38-.4l-1.76.41a5.45,5.45,0,0,1-6.59-4.23l-.36-1.78a1.47,1.47,0,0,0-.94-1.08l-1.7-.6A5.46,5.46,0,0,1,71.89,48l.66-1.69a1.47,1.47,0,0,0-.2-1.42l-1.11-1.43a5.46,5.46,0,0,1,1.11-7.75l1.47-1.06a1.46,1.46,0,0,0,.59-1.3l-.16-1.8a5.46,5.46,0,0,1,5.13-5.92l1.81-.1a1.46,1.46,0,0,0,1.21-.77l.84-1.6a5.45,5.45,0,0,1,7.51-2.21l1.57.89a1.46,1.46,0,0,0,1.43,0h0l1.58-.89a5.46,5.46,0,0,1,7.52,2.21l.84,1.6a1.46,1.46,0,0,0,1.21.77l1.81.1a5.46,5.46,0,0,1,5.13,5.92l-.16,1.8a1.46,1.46,0,0,0,.6,1.3l1.46,1.06a5.46,5.46,0,0,1,1.11,7.75l-1.11,1.43a1.46,1.46,0,0,0-.2,1.42l.66,1.69A5.46,5.46,0,0,1,111,55.12l-1.71.61a1.46,1.46,0,0,0-.94,1.08L108,58.58a5.45,5.45,0,0,1-6.59,4.23L99.6,62.4a1.47,1.47,0,0,0-1.38.4L97,64.1A5.41,5.41,0,0,1,93.05,65.76Zm-6.23-7.4A5.49,5.49,0,0,1,90.75,60L92,61.32a1.49,1.49,0,0,0,2.09,0L95.35,60a5.48,5.48,0,0,1,5.16-1.51l1.76.41A1.46,1.46,0,0,0,104,57.79l.36-1.77A5.48,5.48,0,0,1,107.91,52l1.71-.61a1.46,1.46,0,0,0,.87-1.9l-.66-1.69a5.48,5.48,0,0,1,.77-5.32L111.7,41a1.46,1.46,0,0,0-.3-2.07l-1.46-1.06A5.49,5.49,0,0,1,107.7,33l.16-1.8a1.45,1.45,0,0,0-1.37-1.58l-1.81-.1a5.48,5.48,0,0,1-4.52-2.9L99.32,25a1.45,1.45,0,0,0-2-.59l-1.58.89a5.48,5.48,0,0,1-5.37,0l-1.58-.89a1.46,1.46,0,0,0-2,.59l-.84,1.6a5.48,5.48,0,0,1-4.52,2.91l-1.81.1a1.45,1.45,0,0,0-1.37,1.58L78.4,33a5.49,5.49,0,0,1-2.23,4.89L74.7,38.94A1.46,1.46,0,0,0,74.4,41l1.11,1.43a5.49,5.49,0,0,1,.77,5.32l-.66,1.69a1.46,1.46,0,0,0,.87,1.9l1.7.61A5.49,5.49,0,0,1,81.71,56l.36,1.78a1.46,1.46,0,0,0,1.76,1.13l1.76-.41A5.36,5.36,0,0,1,86.82,58.37Z"/><circle class="cls-1" cx="93.05" cy="42.99" r="8.64"/><path class="cls-2" d="M93.05,53.63A10.64,10.64,0,1,1,103.69,43,10.65,10.65,0,0,1,93.05,53.63Zm0-17.28A6.64,6.64,0,1,0,99.69,43,6.65,6.65,0,0,0,93.05,36.35Z"/></svg>