<svg width="118" height="32" viewBox="0 0 118 32" fill="none" xmlns="http://www.w3.org/2000/svg">
<path d="M16.5082 26.7126C16.5082 26.9757 16.2907 27.1073 15.9428 27.1073H15.6383C14.203 27.1073 11.7675 27.195 11.0063 24.6291C10.3539 26.0546 9.0491 27.4802 6.46126 27.4802C2.76435 27.4802 1.17686 25.4187 1.17686 21.3176V15.1769C1.17686 14.1681 1.13337 13.6857 0.546206 13.4883C0.220009 13.4225 0.0460358 13.2909 0.0460358 13.0277C0.0460358 12.7865 0.220009 12.633 0.567953 12.611C1.43782 12.611 3.32976 12.5891 5.6349 12.2163C5.96109 12.1286 6.17856 12.304 6.17856 12.633V21.3176C6.17856 23.3352 6.61349 25.1335 8.48369 25.1335C10.4191 25.1335 10.7453 22.9405 10.7453 21.0325V15.1769C10.7453 14.1681 10.6584 13.6857 10.0712 13.4883C9.78849 13.4005 9.59278 13.269 9.59278 13.0058C9.59278 12.7646 9.745 12.611 10.093 12.5891C10.9628 12.5891 12.8765 12.5672 15.1816 12.1944C15.5079 12.1286 15.7253 12.304 15.7253 12.633V24.1028C15.7253 24.9362 15.7035 26.0327 16.1385 26.3178C16.3125 26.4494 16.5082 26.5152 16.5082 26.7126Z" fill="#202020"/>
<path d="M34.1431 20.4399C33.969 25.4621 30.5549 27.9842 26.3577 27.3262C25.0095 27.1069 24.0527 26.449 23.4654 25.5718V29.5412C23.4654 30.6159 23.7481 31.0983 24.531 31.2518C24.8355 31.2957 25.0312 31.4054 25.0312 31.6466C25.0312 31.9098 24.879 32.0194 24.5093 31.9975C23.9004 31.9756 22.7695 31.9098 21.1386 31.9098C19.5293 31.9098 18.4203 31.9536 17.8549 31.9975C17.4851 32.0194 17.3329 31.9098 17.3329 31.6466C17.3329 31.4054 17.4851 31.2957 17.8114 31.2299C18.4203 31.0545 18.4855 30.5281 18.4855 29.5412V15.6371C18.4855 14.6283 18.3985 14.1458 17.8114 13.9484C17.5286 13.8607 17.3329 13.7291 17.3329 13.4659C17.3329 13.2247 17.4634 13.0712 17.7461 13.0492C18.6595 12.9177 20.6167 12.7422 22.6173 12.1282C22.987 12.0185 23.1827 12.1062 23.2263 12.4352L23.3568 14.1897C24.2266 12.7422 25.5966 11.7334 27.7712 11.7334C31.9901 11.7553 34.3387 15.3081 34.1431 20.4399ZM29.0326 19.3653C28.9673 15.7029 27.5973 13.7072 25.9228 13.8388C24.1831 13.9484 23.2263 16.0976 23.4002 20.6593C23.5307 24.2559 24.8355 25.9446 26.5535 25.8349C28.3149 25.7033 29.1195 22.9181 29.0326 19.3653Z" fill="#202020"/>
<path d="M57.496 16.0976L53.3424 26.7341C53.2337 26.9753 53.0597 27.1289 52.7988 27.1289H49.8195C49.5585 27.1289 49.3846 26.9973 49.2758 26.7341L46.5357 19.168L43.5348 26.756C43.4477 26.9973 43.2521 27.1508 42.9911 27.1508L42.3169 27.1289V27.1508H40.0552C39.7944 27.1508 39.6203 27.0192 39.5117 26.756L35.0754 14.6063C34.6622 13.4659 34.4447 13.137 33.814 12.8957C33.5095 12.7861 33.3356 12.6764 33.3356 12.4571C33.3356 12.2378 33.4878 12.1062 33.8575 12.1501C34.4881 12.172 35.532 12.2378 37.2282 12.2378C38.7939 12.2378 39.7291 12.2159 40.2727 12.1501C40.6207 12.1282 40.7947 12.2378 40.7947 12.4571C40.7947 12.6764 40.6207 12.808 40.3598 12.9396C39.99 13.1808 40.1205 13.6414 40.3815 14.6283L43.165 24.2121L45.7094 16.9968L44.8395 14.6063C44.4263 13.4659 44.1871 13.137 43.5565 12.9177C43.2738 12.7861 43.078 12.6764 43.078 12.4352C43.078 12.2159 43.2302 12.0843 43.6 12.1282C44.2307 12.1501 45.2962 12.2378 46.9925 12.2378C48.5365 12.2378 49.4933 12.194 50.0152 12.1282C50.3632 12.1062 50.5588 12.2159 50.5588 12.4352C50.5588 12.6984 50.3849 12.7861 50.1239 12.9396C49.7325 13.1589 49.8629 13.6414 50.1456 14.6063L52.9075 24.1901L55.4301 17.0626C56.0607 15.3081 54.2992 14.9572 54.0383 13.4221C53.886 12.4571 54.6038 11.3606 55.9085 11.4483C58.2354 11.5141 58.4094 13.751 57.496 16.0976Z" fill="#202020"/>
<path d="M73.8875 19.6068C73.8875 23.9491 70.9083 27.4361 66.1675 27.4361C61.3832 27.4361 58.4475 23.9271 58.4475 19.6068C58.4692 15.2864 61.3832 11.7774 66.1675 11.7774C70.9083 11.7555 73.8875 15.2864 73.8875 19.6068ZM63.5797 20.1331C64.2538 23.7736 65.6673 26.7781 67.6245 26.4272C69.4947 25.9886 69.4512 22.6771 68.7989 19.0804C68.1029 15.4838 66.6894 12.4354 64.7539 12.7863C62.8402 13.2249 62.9055 16.5584 63.5797 20.1331Z" fill="#202020"/>
<path d="M85.152 16.9977C82.8251 16.9538 84.0212 14.2563 82.238 14.2563C81.1071 14.2563 81.0419 16.1424 81.0419 17.2828V24.6296C81.0419 25.7262 81.3246 26.2086 82.1075 26.3402C82.4554 26.4279 82.6293 26.5157 82.6293 26.7569C82.6293 26.9981 82.4554 27.1297 82.0858 27.1078C81.4768 27.042 80.346 26.9981 78.715 26.9981C77.1058 26.9981 76.0185 27.042 75.4313 27.1078C75.0833 27.1297 74.9094 26.9981 74.9094 26.7569C74.9094 26.5157 75.0833 26.406 75.4095 26.3183C75.9749 26.1648 76.0619 25.6384 76.0619 24.6296V16.3398C76.0619 15.3309 75.9749 14.8046 75.4095 14.6292C75.1051 14.5414 74.9094 14.4098 74.9094 14.1905C74.9094 13.9274 75.0616 13.7958 75.3443 13.7519C76.2577 13.5984 78.1279 13.1159 80.1503 12.129C80.4982 11.9536 80.694 12.1071 80.7592 12.4799L80.9767 14.4756C81.4985 13.0063 82.499 11.8001 84.3256 11.8001C88.6532 11.7562 88.3052 17.0854 85.152 16.9977Z" fill="#202020"/>
<path d="M104.579 26.5149C104.579 26.7561 104.404 26.8658 104.034 26.8658C102.86 26.8658 100.077 26.9974 98.9679 27.1509C98.6199 27.1947 98.4242 27.0193 98.4242 26.6684V25.1771C97.5978 26.5149 96.2495 27.436 94.1401 27.436C89.9431 27.436 87.5727 23.8832 87.7467 18.7514C87.9206 13.7292 91.3566 11.2072 95.5536 11.8651C96.9019 12.0844 97.8588 12.7423 98.4459 13.6195V11.9967C98.4459 11.0317 98.4025 10.4615 97.8153 10.308C97.5326 10.1983 97.3151 10.0667 97.3151 9.82551C97.3151 9.56234 97.4673 9.43075 97.7935 9.34303C98.7069 9.21145 100.903 8.72897 102.882 7.74208C103.187 7.58856 103.447 7.72015 103.447 8.09297V24.3657C103.447 25.3745 103.535 25.9008 104.1 26.0543C104.404 26.1859 104.579 26.2517 104.579 26.5149ZM98.4894 18.554C98.3589 14.9573 97.0542 13.2687 95.3362 13.3783C93.5965 13.5099 92.8135 16.2951 92.8571 19.8479C92.944 23.5104 94.2923 25.5061 95.9668 25.3745C97.7066 25.2648 98.6634 23.0937 98.4894 18.554Z" fill="#202020"/>
<path d="M109.35 7.67174C109.061 7.67174 108.761 7.67824 108.506 7.66524C107.459 7.66524 106.754 7.10655 106.226 6.26526C105.933 5.79752 106.052 5.58314 106.6 5.53441C107.379 5.46945 109.051 5.40449 109.724 5.35251L107.653 2.05558C107.605 1.97762 107.653 1.87692 107.74 1.86393C108.651 1.74375 109.357 1.96138 109.898 2.49408C110.478 3.06252 110.996 3.88757 111.518 4.57944C112.095 3.83885 113.167 2.1108 113.799 1.20454C114.078 0.801765 114.395 0.788772 114.648 1.14608C114.958 1.56185 115.206 2.02309 115.386 2.51033C115.464 2.7442 115.332 3.09825 115.193 3.33537C114.826 3.95578 114.401 4.54371 113.925 5.25507C114.34 5.30704 114.555 5.32003 114.903 5.37525C115.806 5.51493 116.462 5.86248 116.988 6.51862C117.065 6.61607 117.248 6.95388 117.164 7.22024C117.122 7.35666 116.774 7.45736 116.559 7.4736C115.78 7.53207 113.989 7.53532 113.473 7.52557C113.705 7.89587 113.93 8.27916 114.104 8.56175C114.501 9.19515 114.9 9.8318 115.3 10.4652C115.544 10.8517 115.432 11.0921 115.009 11.222C114.642 11.3325 114.25 11.3325 113.892 11.1961C113.535 11.0596 113.251 10.7868 113.035 10.4685C112.651 9.89352 111.936 8.72741 111.737 8.46755C111.167 9.31859 110.509 10.319 109.959 11.1733C109.409 12.0276 109.015 12.0146 108.491 11.1311C108.059 10.4067 107.892 9.69213 108.491 8.95154C108.77 8.56175 109.35 7.67174 109.35 7.67174Z" fill="#B8A4FD"/>
</svg>
