<svg width="25" height="25" viewBox="0 0 25 25" fill="none" xmlns="http://www.w3.org/2000/svg">
<path fill-rule="evenodd" clip-rule="evenodd" d="M12.125 0.249023C18.7524 0.249023 24.125 5.6216 24.125 12.249C24.125 18.2385 19.7368 23.203 14 24.1032V15.7178H16.7961L17.3281 12.249H14V9.99809C14 9.87946 14.0073 9.76121 14.0229 9.6451C14.1323 8.83229 14.6513 8.12402 15.9556 8.12402H17.4688V5.1709C17.4688 5.1709 16.0955 4.93652 14.7826 4.93652C12.0416 4.93652 10.25 6.59777 10.25 9.60527V12.249H7.20312V15.7178H10.25V24.1032C4.5132 23.203 0.125 18.2385 0.125 12.249C0.125 5.6216 5.49758 0.249023 12.125 0.249023Z" fill="#FFFDF8"/>
</svg>
