<svg width="185" height="180" viewBox="0 0 185 180" fill="none" xmlns="http://www.w3.org/2000/svg">
<path d="M54.6809 111.415C49.8871 111.415 44.9334 111.521 40.7256 111.308C23.4147 111.308 11.7498 102.149 3.01446 88.3579C-1.83259 80.6901 0.138184 77.1757 9.19312 76.377C22.0831 75.312 49.7272 74.2471 60.8595 73.3951L26.6105 19.3478C25.8116 18.0698 26.6105 16.4192 28.0487 16.2062C43.1225 14.2359 54.7874 17.8036 63.7358 26.5364C73.3233 35.8548 81.8989 49.38 90.5277 60.7219C100.062 48.5812 117.8 20.2531 128.239 5.39674C132.873 -1.20607 138.093 -1.41907 142.301 4.43827C147.414 11.2541 151.515 18.8154 154.498 26.8026C155.777 30.6365 153.593 36.4406 151.302 40.3277C145.23 50.4982 138.199 60.1362 130.316 71.7977C137.187 72.6496 140.756 72.8626 146.508 73.7678C161.423 76.0575 172.288 81.7551 180.971 92.5113C182.249 94.1088 185.285 99.6467 183.9 104.013C183.207 106.249 177.456 107.9 173.886 108.166C160.997 109.124 131.382 109.178 122.859 109.019C126.694 115.088 130.423 121.372 133.299 126.005C139.85 136.389 146.456 146.825 153.06 157.208C157.109 163.545 155.244 167.485 148.266 169.615C142.194 171.425 135.696 171.425 129.784 169.189C123.871 166.953 119.184 162.48 115.615 157.262C109.277 147.836 97.4521 128.721 94.1497 124.46C84.7219 138.411 73.856 154.812 64.7478 168.816C55.6396 182.821 49.1414 182.608 40.4593 168.124C33.3219 156.25 30.5521 144.535 40.4593 132.395C45.0933 126.005 54.6809 111.415 54.6809 111.415Z" fill="#FFFDF8"/>
</svg>
