<svg width="25" height="25" viewBox="0 0 25 25" fill="none" xmlns="http://www.w3.org/2000/svg">
<path d="M5.57364 24.249V8.05542H0.428739V24.249H5.57364ZM3.00223 5.84467C4.7959 5.84467 5.91281 4.60088 5.91281 3.04724C5.87863 1.45784 4.7959 0.249268 3.0364 0.249268C1.27535 0.249268 0.125305 1.45784 0.125305 3.04724C0.125305 4.60143 1.24169 5.84467 2.96857 5.84467H3.00223ZM8.42105 24.249H13.5654V15.2067C13.5654 14.7229 13.5991 14.2386 13.7348 13.8935C14.1065 12.926 14.9532 11.9249 16.3745 11.9249C18.2355 11.9249 18.9806 13.4098 18.9806 15.587V24.249H24.125V14.964C24.125 9.99043 21.5873 7.67567 18.2024 7.67567C15.4269 7.67567 14.2085 9.29812 13.5313 10.4038H13.5654V8.05596H8.42105C8.48837 9.57494 8.42105 24.249 8.42105 24.249Z" fill="#FFFDF8"/>
</svg>
