<svg width="36" height="61" viewBox="0 0 36 61" fill="none" xmlns="http://www.w3.org/2000/svg">
<path d="M35.2607 25.6322C35.2607 32.7148 32.6305 39.5665 27.3699 46.1872C22.2641 52.8079 16.2298 57.581 9.26734 60.5063C8.49373 60.8143 7.9522 60.7374 7.64275 60.2754C7.48803 59.9675 7.72011 59.5826 8.339 59.1207C13.909 56.6571 18.164 53.0389 21.1036 48.2658C24.0434 43.6467 25.5133 38.1808 25.5133 31.868C25.5133 30.2055 25.2338 28.441 25.0491 26.787C23.8113 28.1728 22.3414 29.2505 20.6395 30.0204C18.9375 30.6363 17.0809 30.9443 15.0694 30.9443C10.892 30.9443 7.3333 29.5585 4.39357 26.787C1.60855 24.0155 0.216049 20.5512 0.216049 16.3941C0.216049 11.929 1.68592 8.15673 4.62565 5.07734C7.72011 1.99795 11.6656 0.458252 16.4619 0.458252C22.1867 0.458252 26.751 2.7678 30.155 7.38689C33.5588 11.852 35.2607 17.9337 35.2607 25.6322Z" fill="#202020"/>
</svg>
