<svg width="25" height="25" viewBox="0 0 25 25" fill="none" xmlns="http://www.w3.org/2000/svg">
<path d="M7.67252 24.6535C16.7292 24.6535 21.6828 15.5425 21.6828 7.64157C21.6828 7.38279 21.6789 7.12517 21.6684 6.86872C22.6293 6.02477 23.4655 4.97217 24.125 3.77269C23.2428 4.24829 22.2933 4.56885 21.2968 4.71339C22.3135 3.97319 23.094 2.80169 23.4616 1.40636C22.5103 2.09179 21.4572 2.58952 20.3349 2.85764C19.4373 1.69662 18.1576 0.969238 16.7416 0.969238C14.022 0.969238 11.8168 3.6468 11.8168 6.94799C11.8168 7.41776 11.86 7.87354 11.9445 8.31066C7.853 8.06121 4.2242 5.68206 1.7954 2.06381C1.37204 2.94739 1.1282 3.97435 1.1282 5.06892C1.1282 7.14382 1.99796 8.9751 3.31892 10.0464C2.51156 10.016 1.7522 9.74677 1.08884 9.298C1.08788 9.32247 1.08788 9.34812 1.08788 9.37376C1.08788 12.2693 2.78516 14.6869 5.03828 15.2347C4.62452 15.3711 4.18964 15.4446 3.74036 15.4446C3.42356 15.4446 3.11444 15.4061 2.81492 15.3374C3.4418 17.713 5.25908 19.4417 7.41524 19.4906C5.72948 21.0946 3.60692 22.0505 1.30004 22.0505C0.9026 22.0505 0.51092 22.0225 0.125 21.9677C2.3042 23.6637 4.8914 24.6535 7.67252 24.6535Z" fill="#FFFDF8"/>
</svg>
